<svg width="437" height="61" viewBox="0 0 437 61" fill="none" xmlns="http://www.w3.org/2000/svg">
<path d="M228.054 25.4867C228.635 20.177 225.677 14.0177 215.111 14.0177H194.615L185.37 54.2124H195.882L199.369 39.1327H204.757L214.055 54.2124H225.518L215.059 38.2301C224.356 35.7876 227.473 30.7965 228.054 25.4867ZM217.647 26.0708C217.224 30 213.527 32.3363 208.455 32.3363H200.954L203.754 20.2301H211.678C215.851 20.177 218.017 22.2478 217.647 26.0708Z" fill="#F7052D"/>
<path d="M244.378 14.0177H254.943L252.46 24.6903L245.698 54.2124H235.027L244.378 14.0177Z" fill="#F7052D"/>
<path d="M333.391 11.7876L333.444 54.1593H323.459L323.565 23.8938L302.276 54.1593H292.503L283.681 23.7345L269.576 54.1593H257.901L278.768 10.0354C280.3 7.16814 281.726 5.8938 284.632 5.8938C286.533 5.8938 288.594 7.00885 289.545 10.354L298.631 43.4336L322.297 9.61061C324.305 6.74336 325.995 5.8407 328.372 5.9469C330.855 6.05309 333.391 7.69911 333.391 11.7876Z" fill="#F7052D"/>
<path d="M404.338 35.0442C403.651 41.5221 408.511 46.5664 417.069 46.7257C422.246 46.8319 425.468 46.1947 429.483 45.0796L427.423 53.8938C423.25 54.5841 420.344 54.9026 416.91 54.9026C400.059 54.9026 392.24 46.5133 393.508 34.885C394.934 21.7699 406.451 12.9026 424.623 12.9026C427.951 12.9026 433.075 13.4867 436.087 14.2301L434.238 22.3009C430.54 21.292 426.525 21.0796 423.408 21.0796C412.843 20.9734 405.288 26.2832 404.338 35.0442Z" fill="#F7052D"/>
<path d="M377.766 18.2124C376.498 13.8584 374.015 12.6903 371.426 12.9026C369.789 13.0619 368.098 13.8053 366.355 16.3009L341.156 54.1593H351.511L356.899 45.7168H375.441L377.396 54.2124H387.486L377.766 18.2124ZM361.231 39.1858L370.74 24.4248L373.803 39.1858H361.231Z" fill="#F7052D"/>
<path d="M2.95831 40.0885C3.43375 40.0885 3.85637 39.9823 4.27898 39.823C4.38464 39.7699 70.841 11.2566 70.841 11.2566C70.841 11.2566 51.4535 52.4602 51.4006 52.5664C51.0308 53.2566 50.8195 54.0531 50.8195 54.9026C50.8195 57.823 53.1439 60.1593 56.0494 60.1593C56.6305 60.1593 57.1059 60.0531 57.7399 59.8938L155.1 32.4425L155.417 32.3363C159.59 31.115 163.975 27.5575 163.975 20.9734C163.975 14.4425 158.692 9.13274 152.142 9.13274C150.398 9.13274 148.232 9.76991 146.753 10.4071C141.788 12.531 68.4637 43.9115 68.4637 43.9115C68.4637 43.9115 77.0745 18.6372 80.6668 9.07964C81.8818 5.8407 82.3044 4.61947 82.2516 3.82301C82.2516 1.75221 80.5611 0 78.448 0C77.8141 0 77.233 0.159286 76.7048 0.424772C76.5991 0.47787 1.90177 34.5133 1.90177 34.5133C0.739577 35.0442 0 36 0 37.2212C0.105654 38.8142 1.3735 40.0885 2.95831 40.0885Z" fill="#F7052D"/>
</svg>
